<?xml version="1.0" encoding="UTF-8"?>
<svg xmlns="http://www.w3.org/2000/svg" xmlns:xlink="http://www.w3.org/1999/xlink" viewBox="0 0 24 24" width="24px" height="24px">
<g id="surface84206091">
<path style=" stroke:none;fill-rule:nonzero;fill:rgb(100%,100%,100%);fill-opacity:1;" d="M 7.199219 20 L 3.199219 20 L 3.199219 8 L 7.199219 8 Z M 5.199219 6.398438 C 4.09375 6.398438 3.199219 5.503906 3.199219 4.398438 C 3.199219 3.296875 4.097656 2.398438 5.199219 2.398438 C 6.304688 2.398438 7.199219 3.296875 7.199219 4.398438 C 7.199219 5.503906 6.304688 6.398438 5.199219 6.398438 Z M 21.601562 20 L 17.753906 20 L 17.753906 14.160156 C 17.753906 12.765625 17.726562 10.976562 15.753906 10.976562 C 13.753906 10.976562 13.445312 12.492188 13.445312 14.058594 L 13.445312 20 L 9.601562 20 L 9.601562 7.992188 L 13.292969 7.992188 L 13.292969 9.632812 L 13.34375 9.632812 C 13.855469 8.6875 15.113281 7.691406 16.984375 7.691406 C 20.878906 7.691406 21.601562 10.179688 21.601562 13.414062 Z M 21.601562 20 "/>
</g>
</svg>
