<?xml version="1.0" standalone="no"?>
<!DOCTYPE svg PUBLIC "-//W3C//DTD SVG 20010904//EN"
 "http://www.w3.org/TR/2001/REC-SVG-20010904/DTD/svg10.dtd">
<svg version="1.0" xmlns="http://www.w3.org/2000/svg"
 width="400.000000pt" height="400.000000pt" viewBox="0 0 400.000000 400.000000"
 preserveAspectRatio="xMidYMid meet">

<g transform="translate(0.000000,400.000000) scale(0.100000,-0.100000)"
fill="#000000" stroke="none">
<path d="M1910 3624 c-436 -37 -761 -184 -1055 -479 -287 -286 -444 -627 -474
-1024 -73 -988 752 -1813 1740 -1740 397 30 738 187 1024 474 318 318 478 700
478 1145 0 446 -159 828 -477 1146 -222 221 -445 350 -741 427 -147 38 -371
61 -495 51z m851 -1060 c41 -41 76 -82 78 -91 3 -18 -1046 -1075 -1091 -1099
-36 -19 -78 -18 -108 2 -45 30 -480 468 -480 484 0 19 150 170 170 170 8 0 94
-80 192 -177 l177 -177 476 482 c276 279 485 482 495 482 10 0 51 -34 91 -76z"/>
</g>
</svg>
