<?xml version="1.0" encoding="UTF-8"?>
<svg xmlns="http://www.w3.org/2000/svg" xmlns:xlink="http://www.w3.org/1999/xlink" viewBox="0 0 24 24" width="24px" height="24px">
<g id="surface84119040">
<path style=" stroke:none;fill-rule:nonzero;fill:rgb(100%,100%,100%);fill-opacity:1;" d="M 12 2.398438 C 6.699219 2.398438 2.398438 6.699219 2.398438 12 C 2.398438 16.8125 5.945312 20.789062 10.566406 21.480469 L 10.566406 14.542969 L 8.191406 14.542969 L 8.191406 12.019531 L 10.566406 12.019531 L 10.566406 10.339844 C 10.566406 7.5625 11.917969 6.339844 14.230469 6.339844 C 15.335938 6.339844 15.921875 6.425781 16.199219 6.460938 L 16.199219 8.664062 L 14.621094 8.664062 C 13.640625 8.664062 13.300781 9.59375 13.300781 10.640625 L 13.300781 12.019531 L 16.171875 12.019531 L 15.785156 14.542969 L 13.300781 14.542969 L 13.300781 21.5 C 17.984375 20.867188 21.601562 16.859375 21.601562 12 C 21.601562 6.699219 17.300781 2.398438 12 2.398438 Z M 12 2.398438 "/>
</g>
</svg>
