<?xml version="1.0" standalone="no"?>
<!DOCTYPE svg PUBLIC "-//W3C//DTD SVG 20010904//EN"
 "http://www.w3.org/TR/2001/REC-SVG-20010904/DTD/svg10.dtd">
<svg version="1.0" xmlns="http://www.w3.org/2000/svg"
 width="224.000000pt" height="225.000000pt" viewBox="0 0 224.000000 225.000000"
 preserveAspectRatio="xMidYMid meet">

<g transform="translate(0.000000,225.000000) scale(0.100000,-0.100000)"
fill="#000000" stroke="none">
<path d="M695 2240 c-477 -75 -780 -527 -670 -1000 9 -36 39 -112 67 -170 46
-93 64 -117 152 -206 85 -85 115 -108 186 -143 125 -61 220 -82 365 -83 141 0
232 18 353 69 l84 36 366 -366 c395 -393 395 -393 466 -363 50 21 131 100 157
152 42 87 50 77 -357 484 l-364 365 20 30 c31 47 77 182 90 268 15 92 8 243
-15 332 -57 216 -218 413 -420 515 -141 70 -334 102 -480 80z m267 -300 c236
-73 397 -323 361 -562 -14 -99 -46 -176 -99 -247 -192 -256 -560 -280 -784
-52 -102 104 -150 219 -150 361 0 231 137 421 360 497 87 30 221 31 312 3z"/>
</g>
</svg>
